<mxfile host="app.diagrams.net" modified="2020-09-08T03:47:00.433Z" agent="5.0 (Windows)" etag="bCawWTg0so0o3n-eZNmC" version="13.6.6" type="github">
  <diagram id="C5RBs43oDa-KdzZeNtuy" name="Page-1">
    <mxGraphModel dx="1790" dy="1620" grid="1" gridSize="10" guides="1" tooltips="1" connect="1" arrows="1" fold="1" page="1" pageScale="1" pageWidth="827" pageHeight="1169" math="0" shadow="0">
      <root>
        <mxCell id="WIyWlLk6GJQsqaUBKTNV-0" />
        <mxCell id="WIyWlLk6GJQsqaUBKTNV-1" parent="WIyWlLk6GJQsqaUBKTNV-0" />
        <mxCell id="mVQUmrM8wRDj-4UBV71F-0" style="edgeStyle=orthogonalEdgeStyle;rounded=0;orthogonalLoop=1;jettySize=auto;html=1;exitX=0.5;exitY=0;exitDx=0;exitDy=0;entryX=0.5;entryY=0.046;entryDx=0;entryDy=0;entryPerimeter=0;" edge="1" parent="WIyWlLk6GJQsqaUBKTNV-1" source="zkfFHV4jXpPFQw0GAbJ--17" target="zkfFHV4jXpPFQw0GAbJ--17">
          <mxGeometry relative="1" as="geometry" />
        </mxCell>
        <mxCell id="zkfFHV4jXpPFQw0GAbJ--0" value="Deportes" style="swimlane;fontStyle=2;align=center;verticalAlign=top;childLayout=stackLayout;horizontal=1;startSize=26;horizontalStack=0;resizeParent=1;resizeLast=0;collapsible=1;marginBottom=0;rounded=0;shadow=0;strokeWidth=1;" parent="WIyWlLk6GJQsqaUBKTNV-1" vertex="1">
          <mxGeometry x="70" y="200" width="160" height="142" as="geometry">
            <mxRectangle x="70" y="200" width="160" height="26" as="alternateBounds" />
          </mxGeometry>
        </mxCell>
        <mxCell id="zkfFHV4jXpPFQw0GAbJ--1" value="+implemento: bool" style="text;align=left;verticalAlign=top;spacingLeft=4;spacingRight=4;overflow=hidden;rotatable=0;points=[[0,0.5],[1,0.5]];portConstraint=eastwest;" parent="zkfFHV4jXpPFQw0GAbJ--0" vertex="1">
          <mxGeometry y="26" width="160" height="26" as="geometry" />
        </mxCell>
        <mxCell id="zkfFHV4jXpPFQw0GAbJ--2" value="+riesgo: float" style="text;align=left;verticalAlign=top;spacingLeft=4;spacingRight=4;overflow=hidden;rotatable=0;points=[[0,0.5],[1,0.5]];portConstraint=eastwest;rounded=0;shadow=0;html=0;" parent="zkfFHV4jXpPFQw0GAbJ--0" vertex="1">
          <mxGeometry y="52" width="160" height="26" as="geometry" />
        </mxCell>
        <mxCell id="zkfFHV4jXpPFQw0GAbJ--4" value="" style="line;html=1;strokeWidth=1;align=left;verticalAlign=middle;spacingTop=-1;spacingLeft=3;spacingRight=3;rotatable=0;labelPosition=right;points=[];portConstraint=eastwest;" parent="zkfFHV4jXpPFQw0GAbJ--0" vertex="1">
          <mxGeometry y="78" width="160" height="8" as="geometry" />
        </mxCell>
        <mxCell id="zkfFHV4jXpPFQw0GAbJ--5" value="+validez_competencia()&#xa;&#xa;+calcular_ganador()&#xa;" style="text;align=left;verticalAlign=top;spacingLeft=4;spacingRight=4;overflow=hidden;rotatable=0;points=[[0,0.5],[1,0.5]];portConstraint=eastwest;" parent="zkfFHV4jXpPFQw0GAbJ--0" vertex="1">
          <mxGeometry y="86" width="160" height="56" as="geometry" />
        </mxCell>
        <mxCell id="mVQUmrM8wRDj-4UBV71F-27" value="Ciclismo" style="swimlane;fontStyle=2;align=center;verticalAlign=top;childLayout=stackLayout;horizontal=1;startSize=26;horizontalStack=0;resizeParent=1;resizeLast=0;collapsible=1;marginBottom=0;rounded=0;shadow=0;strokeWidth=1;" vertex="1" parent="WIyWlLk6GJQsqaUBKTNV-1">
          <mxGeometry x="40" y="400" width="160" height="56" as="geometry">
            <mxRectangle x="230" y="140" width="160" height="26" as="alternateBounds" />
          </mxGeometry>
        </mxCell>
        <mxCell id="mVQUmrM8wRDj-4UBV71F-41" value="+calcular_ganador()" style="text;whiteSpace=wrap;html=1;" vertex="1" parent="mVQUmrM8wRDj-4UBV71F-27">
          <mxGeometry y="26" width="160" height="30" as="geometry" />
        </mxCell>
        <mxCell id="mVQUmrM8wRDj-4UBV71F-51" value="" style="edgeStyle=orthogonalEdgeStyle;rounded=0;jumpSize=6;orthogonalLoop=1;jettySize=auto;html=1;endArrow=block;endFill=0;entryX=0.5;entryY=1;entryDx=0;entryDy=0;" edge="1" parent="WIyWlLk6GJQsqaUBKTNV-1" source="mVQUmrM8wRDj-4UBV71F-35" target="zkfFHV4jXpPFQw0GAbJ--0">
          <mxGeometry relative="1" as="geometry">
            <mxPoint x="150" y="350" as="targetPoint" />
            <Array as="points">
              <mxPoint x="-60" y="360" />
              <mxPoint x="150" y="360" />
            </Array>
          </mxGeometry>
        </mxCell>
        <mxCell id="mVQUmrM8wRDj-4UBV71F-35" value="Atletismo" style="swimlane;fontStyle=2;align=center;verticalAlign=top;childLayout=stackLayout;horizontal=1;startSize=26;horizontalStack=0;resizeParent=1;resizeLast=0;collapsible=1;marginBottom=0;rounded=0;shadow=0;strokeWidth=1;" vertex="1" parent="WIyWlLk6GJQsqaUBKTNV-1">
          <mxGeometry x="-140" y="400" width="160" height="52" as="geometry">
            <mxRectangle x="230" y="140" width="160" height="26" as="alternateBounds" />
          </mxGeometry>
        </mxCell>
        <mxCell id="mVQUmrM8wRDj-4UBV71F-36" value="+calcular_ganador()" style="text;align=left;verticalAlign=top;spacingLeft=4;spacingRight=4;overflow=hidden;rotatable=0;points=[[0,0.5],[1,0.5]];portConstraint=eastwest;" vertex="1" parent="mVQUmrM8wRDj-4UBV71F-35">
          <mxGeometry y="26" width="160" height="26" as="geometry" />
        </mxCell>
        <mxCell id="mVQUmrM8wRDj-4UBV71F-38" value="NataciÃ³n" style="swimlane;fontStyle=2;align=center;verticalAlign=top;childLayout=stackLayout;horizontal=1;startSize=26;horizontalStack=0;resizeParent=1;resizeLast=0;collapsible=1;marginBottom=0;rounded=0;shadow=0;strokeWidth=1;" vertex="1" parent="WIyWlLk6GJQsqaUBKTNV-1">
          <mxGeometry x="400" y="400" width="160" height="52" as="geometry">
            <mxRectangle x="230" y="140" width="160" height="26" as="alternateBounds" />
          </mxGeometry>
        </mxCell>
        <mxCell id="mVQUmrM8wRDj-4UBV71F-39" value="+calcular_ganador()" style="text;align=left;verticalAlign=top;spacingLeft=4;spacingRight=4;overflow=hidden;rotatable=0;points=[[0,0.5],[1,0.5]];portConstraint=eastwest;" vertex="1" parent="mVQUmrM8wRDj-4UBV71F-38">
          <mxGeometry y="26" width="160" height="26" as="geometry" />
        </mxCell>
        <mxCell id="mVQUmrM8wRDj-4UBV71F-32" value="Gimnasia" style="swimlane;fontStyle=2;align=center;verticalAlign=top;childLayout=stackLayout;horizontal=1;startSize=26;horizontalStack=0;resizeParent=1;resizeLast=0;collapsible=1;marginBottom=0;rounded=0;shadow=0;strokeWidth=1;" vertex="1" parent="WIyWlLk6GJQsqaUBKTNV-1">
          <mxGeometry x="220" y="400" width="160" height="56" as="geometry">
            <mxRectangle x="230" y="140" width="160" height="26" as="alternateBounds" />
          </mxGeometry>
        </mxCell>
        <mxCell id="mVQUmrM8wRDj-4UBV71F-34" value="+calcular_ganador()" style="text;align=left;verticalAlign=top;spacingLeft=4;spacingRight=4;overflow=hidden;rotatable=0;points=[[0,0.5],[1,0.5]];portConstraint=eastwest;rounded=0;shadow=0;html=0;" vertex="1" parent="mVQUmrM8wRDj-4UBV71F-32">
          <mxGeometry y="26" width="160" height="30" as="geometry" />
        </mxCell>
        <mxCell id="mVQUmrM8wRDj-4UBV71F-67" value="" style="endArrow=none;html=1;entryX=0.5;entryY=0;entryDx=0;entryDy=0;rounded=0;" edge="1" parent="WIyWlLk6GJQsqaUBKTNV-1" target="mVQUmrM8wRDj-4UBV71F-38">
          <mxGeometry width="50" height="50" relative="1" as="geometry">
            <mxPoint x="150" y="360" as="sourcePoint" />
            <mxPoint x="480" y="360" as="targetPoint" />
            <Array as="points">
              <mxPoint x="480" y="360" />
            </Array>
          </mxGeometry>
        </mxCell>
        <mxCell id="mVQUmrM8wRDj-4UBV71F-68" value="" style="endArrow=none;html=1;exitX=0.5;exitY=0;exitDx=0;exitDy=0;" edge="1" parent="WIyWlLk6GJQsqaUBKTNV-1" source="mVQUmrM8wRDj-4UBV71F-32">
          <mxGeometry width="50" height="50" relative="1" as="geometry">
            <mxPoint x="270" y="380" as="sourcePoint" />
            <mxPoint x="300" y="360" as="targetPoint" />
          </mxGeometry>
        </mxCell>
        <mxCell id="mVQUmrM8wRDj-4UBV71F-72" value="" style="endArrow=none;html=1;" edge="1" parent="WIyWlLk6GJQsqaUBKTNV-1">
          <mxGeometry width="50" height="50" relative="1" as="geometry">
            <mxPoint x="150" y="360" as="sourcePoint" />
            <mxPoint x="150" y="402" as="targetPoint" />
          </mxGeometry>
        </mxCell>
        <mxCell id="mVQUmrM8wRDj-4UBV71F-78" value="" style="endArrow=none;html=1;strokeWidth=1;exitX=0.561;exitY=1.154;exitDx=0;exitDy=0;exitPerimeter=0;endFill=0;startArrow=block;startFill=0;entryX=0.529;entryY=1;entryDx=0;entryDy=0;entryPerimeter=0;rounded=0;" edge="1" parent="WIyWlLk6GJQsqaUBKTNV-1" source="mVQUmrM8wRDj-4UBV71F-16" target="mVQUmrM8wRDj-4UBV71F-44">
          <mxGeometry width="50" height="50" relative="1" as="geometry">
            <mxPoint x="350" y="860" as="sourcePoint" />
            <mxPoint x="240" y="860" as="targetPoint" />
            <Array as="points">
              <mxPoint x="671" y="720" />
              <mxPoint x="360" y="720" />
            </Array>
          </mxGeometry>
        </mxCell>
        <mxCell id="mVQUmrM8wRDj-4UBV71F-79" value="" style="endArrow=none;html=1;strokeWidth=1;entryX=0.529;entryY=1;entryDx=0;entryDy=0;entryPerimeter=0;" edge="1" parent="WIyWlLk6GJQsqaUBKTNV-1" target="mVQUmrM8wRDj-4UBV71F-46">
          <mxGeometry width="50" height="50" relative="1" as="geometry">
            <mxPoint x="560" y="720" as="sourcePoint" />
            <mxPoint x="520" y="810" as="targetPoint" />
          </mxGeometry>
        </mxCell>
        <mxCell id="zkfFHV4jXpPFQw0GAbJ--6" value="Delegaciones" style="swimlane;fontStyle=0;align=center;verticalAlign=top;childLayout=stackLayout;horizontal=1;startSize=26;horizontalStack=0;resizeParent=1;resizeLast=0;collapsible=1;marginBottom=0;rounded=0;shadow=0;strokeWidth=1;" parent="WIyWlLk6GJQsqaUBKTNV-1" vertex="1">
          <mxGeometry x="570" y="130" width="180" height="372" as="geometry">
            <mxRectangle x="120" y="360" width="160" height="26" as="alternateBounds" />
          </mxGeometry>
        </mxCell>
        <mxCell id="zkfFHV4jXpPFQw0GAbJ--7" value="+entrenador: str" style="text;align=left;verticalAlign=top;spacingLeft=4;spacingRight=4;overflow=hidden;rotatable=0;points=[[0,0.5],[1,0.5]];portConstraint=eastwest;" parent="zkfFHV4jXpPFQw0GAbJ--6" vertex="1">
          <mxGeometry y="26" width="180" height="26" as="geometry" />
        </mxCell>
        <mxCell id="zkfFHV4jXpPFQw0GAbJ--8" value="+equipo: list" style="text;align=left;verticalAlign=top;spacingLeft=4;spacingRight=4;overflow=hidden;rotatable=0;points=[[0,0.5],[1,0.5]];portConstraint=eastwest;rounded=0;shadow=0;html=0;" parent="zkfFHV4jXpPFQw0GAbJ--6" vertex="1">
          <mxGeometry y="52" width="180" height="26" as="geometry" />
        </mxCell>
        <mxCell id="zkfFHV4jXpPFQw0GAbJ--11" value="+medallas: int" style="text;align=left;verticalAlign=top;spacingLeft=4;spacingRight=4;overflow=hidden;rotatable=0;points=[[0,0.5],[1,0.5]];portConstraint=eastwest;" parent="zkfFHV4jXpPFQw0GAbJ--6" vertex="1">
          <mxGeometry y="78" width="180" height="26" as="geometry" />
        </mxCell>
        <mxCell id="mVQUmrM8wRDj-4UBV71F-1" value="+moral: int" style="text;align=left;verticalAlign=top;spacingLeft=4;spacingRight=4;overflow=hidden;rotatable=0;points=[[0,0.5],[1,0.5]];portConstraint=eastwest;" vertex="1" parent="zkfFHV4jXpPFQw0GAbJ--6">
          <mxGeometry y="104" width="180" height="26" as="geometry" />
        </mxCell>
        <mxCell id="mVQUmrM8wRDj-4UBV71F-2" value="+dinero: int&#xa;" style="text;align=left;verticalAlign=top;spacingLeft=4;spacingRight=4;overflow=hidden;rotatable=0;points=[[0,0.5],[1,0.5]];portConstraint=eastwest;" vertex="1" parent="zkfFHV4jXpPFQw0GAbJ--6">
          <mxGeometry y="130" width="180" height="26" as="geometry" />
        </mxCell>
        <mxCell id="mVQUmrM8wRDj-4UBV71F-5" value="+excelencia y respeto: float" style="text;align=left;verticalAlign=top;spacingLeft=4;spacingRight=4;overflow=hidden;rotatable=0;points=[[0,0.5],[1,0.5]];portConstraint=eastwest;" vertex="1" parent="zkfFHV4jXpPFQw0GAbJ--6">
          <mxGeometry y="156" width="180" height="26" as="geometry" />
        </mxCell>
        <mxCell id="mVQUmrM8wRDj-4UBV71F-6" value="+implementos deportivos: float" style="text;align=left;verticalAlign=top;spacingLeft=4;spacingRight=4;overflow=hidden;rotatable=0;points=[[0,0.5],[1,0.5]];portConstraint=eastwest;" vertex="1" parent="zkfFHV4jXpPFQw0GAbJ--6">
          <mxGeometry y="182" width="180" height="26" as="geometry" />
        </mxCell>
        <mxCell id="mVQUmrM8wRDj-4UBV71F-8" value="+implementos mÃ©dicos: float" style="text;align=left;verticalAlign=top;spacingLeft=4;spacingRight=4;overflow=hidden;rotatable=0;points=[[0,0.5],[1,0.5]];portConstraint=eastwest;" vertex="1" parent="zkfFHV4jXpPFQw0GAbJ--6">
          <mxGeometry y="208" width="180" height="26" as="geometry" />
        </mxCell>
        <mxCell id="mVQUmrM8wRDj-4UBV71F-9" value="" style="line;html=1;strokeWidth=1;align=left;verticalAlign=middle;spacingTop=-1;spacingLeft=3;spacingRight=3;rotatable=0;labelPosition=right;points=[];portConstraint=eastwest;" vertex="1" parent="zkfFHV4jXpPFQw0GAbJ--6">
          <mxGeometry y="234" width="180" height="8" as="geometry" />
        </mxCell>
        <mxCell id="mVQUmrM8wRDj-4UBV71F-12" value="+fichar_deportistas()" style="text;align=left;verticalAlign=top;spacingLeft=4;spacingRight=4;overflow=hidden;rotatable=0;points=[[0,0.5],[1,0.5]];portConstraint=eastwest;" vertex="1" parent="zkfFHV4jXpPFQw0GAbJ--6">
          <mxGeometry y="242" width="180" height="26" as="geometry" />
        </mxCell>
        <mxCell id="mVQUmrM8wRDj-4UBV71F-14" value="+entrenar_deportistas()" style="text;align=left;verticalAlign=top;spacingLeft=4;spacingRight=4;overflow=hidden;rotatable=0;points=[[0,0.5],[1,0.5]];portConstraint=eastwest;" vertex="1" parent="zkfFHV4jXpPFQw0GAbJ--6">
          <mxGeometry y="268" width="180" height="26" as="geometry" />
        </mxCell>
        <mxCell id="mVQUmrM8wRDj-4UBV71F-13" value="+sanar_lesiones()" style="text;align=left;verticalAlign=top;spacingLeft=4;spacingRight=4;overflow=hidden;rotatable=0;points=[[0,0.5],[1,0.5]];portConstraint=eastwest;" vertex="1" parent="zkfFHV4jXpPFQw0GAbJ--6">
          <mxGeometry y="294" width="180" height="26" as="geometry" />
        </mxCell>
        <mxCell id="mVQUmrM8wRDj-4UBV71F-15" value="+comprar_tecnologÃ­as()" style="text;align=left;verticalAlign=top;spacingLeft=4;spacingRight=4;overflow=hidden;rotatable=0;points=[[0,0.5],[1,0.5]];portConstraint=eastwest;" vertex="1" parent="zkfFHV4jXpPFQw0GAbJ--6">
          <mxGeometry y="320" width="180" height="26" as="geometry" />
        </mxCell>
        <mxCell id="mVQUmrM8wRDj-4UBV71F-16" value="+utilizar_habilidad_especial()" style="text;align=left;verticalAlign=top;spacingLeft=4;spacingRight=4;overflow=hidden;rotatable=0;points=[[0,0.5],[1,0.5]];portConstraint=eastwest;" vertex="1" parent="zkfFHV4jXpPFQw0GAbJ--6">
          <mxGeometry y="346" width="180" height="26" as="geometry" />
        </mxCell>
        <mxCell id="zkfFHV4jXpPFQw0GAbJ--13" value="Deportistas" style="swimlane;fontStyle=0;align=center;verticalAlign=top;childLayout=stackLayout;horizontal=1;startSize=26;horizontalStack=0;resizeParent=1;resizeLast=0;collapsible=1;marginBottom=0;rounded=0;shadow=0;strokeWidth=1;" parent="WIyWlLk6GJQsqaUBKTNV-1" vertex="1">
          <mxGeometry x="-350" y="130" width="160" height="250" as="geometry">
            <mxRectangle x="340" y="380" width="170" height="26" as="alternateBounds" />
          </mxGeometry>
        </mxCell>
        <mxCell id="zkfFHV4jXpPFQw0GAbJ--14" value="+velocidad: int&#xa;&#xa;+resistencia: int&#xa;&#xa;+flexibilidad: int&#xa;&#xa;+moral: int&#xa;&#xa;+lesionado: bool&#xa;&#xa;+precio: int&#xa;" style="text;align=left;verticalAlign=top;spacingLeft=4;spacingRight=4;overflow=hidden;rotatable=0;points=[[0,0.5],[1,0.5]];portConstraint=eastwest;" parent="zkfFHV4jXpPFQw0GAbJ--13" vertex="1">
          <mxGeometry y="26" width="160" height="164" as="geometry" />
        </mxCell>
        <mxCell id="mVQUmrM8wRDj-4UBV71F-17" value="" style="line;html=1;strokeWidth=1;align=left;verticalAlign=middle;spacingTop=-1;spacingLeft=3;spacingRight=3;rotatable=0;labelPosition=right;points=[];portConstraint=eastwest;" vertex="1" parent="zkfFHV4jXpPFQw0GAbJ--13">
          <mxGeometry y="190" width="160" height="8" as="geometry" />
        </mxCell>
        <mxCell id="mVQUmrM8wRDj-4UBV71F-18" value="+entrenar()&#xa;&#xa;+lesionarse()&#xa;" style="text;align=left;verticalAlign=top;spacingLeft=4;spacingRight=4;overflow=hidden;rotatable=0;points=[[0,0.5],[1,0.5]];portConstraint=eastwest;" vertex="1" parent="zkfFHV4jXpPFQw0GAbJ--13">
          <mxGeometry y="198" width="160" height="52" as="geometry" />
        </mxCell>
        <mxCell id="mVQUmrM8wRDj-4UBV71F-81" value="" style="endArrow=diamondThin;startArrow=open;html=1;strokeWidth=1;exitX=0.438;exitY=1;exitDx=0;exitDy=0;exitPerimeter=0;entryX=0.569;entryY=-0.021;entryDx=0;entryDy=0;entryPerimeter=0;rounded=0;endFill=0;startFill=0;" edge="1" parent="WIyWlLk6GJQsqaUBKTNV-1" source="mVQUmrM8wRDj-4UBV71F-18" target="zkfFHV4jXpPFQw0GAbJ--0">
          <mxGeometry width="50" height="50" relative="1" as="geometry">
            <mxPoint x="-80" y="270" as="sourcePoint" />
            <mxPoint x="160" y="190" as="targetPoint" />
            <Array as="points">
              <mxPoint x="-280" y="440" />
              <mxPoint x="-160" y="440" />
              <mxPoint x="-160" y="180" />
              <mxPoint x="160" y="180" />
            </Array>
          </mxGeometry>
        </mxCell>
        <mxCell id="zkfFHV4jXpPFQw0GAbJ--17" value="Campeonato&#xa;" style="swimlane;fontStyle=0;align=center;verticalAlign=top;childLayout=stackLayout;horizontal=1;startSize=30;horizontalStack=0;resizeParent=1;resizeLast=0;collapsible=1;marginBottom=0;rounded=0;shadow=0;strokeWidth=1;" parent="WIyWlLk6GJQsqaUBKTNV-1" vertex="1">
          <mxGeometry x="130" y="-130" width="160" height="200" as="geometry">
            <mxRectangle x="550" y="140" width="160" height="26" as="alternateBounds" />
          </mxGeometry>
        </mxCell>
        <mxCell id="zkfFHV4jXpPFQw0GAbJ--18" value="+dÃ­a_actual: int" style="text;align=left;verticalAlign=top;spacingLeft=4;spacingRight=4;overflow=hidden;rotatable=0;points=[[0,0.5],[1,0.5]];portConstraint=eastwest;" parent="zkfFHV4jXpPFQw0GAbJ--17" vertex="1">
          <mxGeometry y="30" width="160" height="26" as="geometry" />
        </mxCell>
        <mxCell id="zkfFHV4jXpPFQw0GAbJ--19" value="+medallero: list" style="text;align=left;verticalAlign=top;spacingLeft=4;spacingRight=4;overflow=hidden;rotatable=0;points=[[0,0.5],[1,0.5]];portConstraint=eastwest;rounded=0;shadow=0;html=0;" parent="zkfFHV4jXpPFQw0GAbJ--17" vertex="1">
          <mxGeometry y="56" width="160" height="26" as="geometry" />
        </mxCell>
        <mxCell id="zkfFHV4jXpPFQw0GAbJ--23" value="" style="line;html=1;strokeWidth=1;align=left;verticalAlign=middle;spacingTop=-1;spacingLeft=3;spacingRight=3;rotatable=0;labelPosition=right;points=[];portConstraint=eastwest;" parent="zkfFHV4jXpPFQw0GAbJ--17" vertex="1">
          <mxGeometry y="82" width="160" height="8" as="geometry" />
        </mxCell>
        <mxCell id="zkfFHV4jXpPFQw0GAbJ--24" value="+realizar_competencia()&#xa;&#xa;+premiar()&#xa;&#xa;+calcular_moral()&#xa;&#xa;+mostrar_estado()&#xa;&#xa;" style="text;align=left;verticalAlign=top;spacingLeft=4;spacingRight=4;overflow=hidden;rotatable=0;points=[[0,0.5],[1,0.5]];portConstraint=eastwest;" parent="zkfFHV4jXpPFQw0GAbJ--17" vertex="1">
          <mxGeometry y="90" width="160" height="110" as="geometry" />
        </mxCell>
        <mxCell id="mVQUmrM8wRDj-4UBV71F-83" value="" style="endArrow=none;html=1;strokeWidth=1;entryX=0.561;entryY=0;entryDx=0;entryDy=0;entryPerimeter=0;rounded=0;exitX=0.438;exitY=1.045;exitDx=0;exitDy=0;exitPerimeter=0;endFill=0;startArrow=diamondThin;startFill=0;" edge="1" parent="WIyWlLk6GJQsqaUBKTNV-1" source="zkfFHV4jXpPFQw0GAbJ--24" target="zkfFHV4jXpPFQw0GAbJ--6">
          <mxGeometry width="50" height="50" relative="1" as="geometry">
            <mxPoint x="200" y="110" as="sourcePoint" />
            <mxPoint x="570" y="100" as="targetPoint" />
            <Array as="points">
              <mxPoint x="200" y="110" />
              <mxPoint x="671" y="110" />
            </Array>
          </mxGeometry>
        </mxCell>
        <mxCell id="mVQUmrM8wRDj-4UBV71F-43" value="IEEEsparta" style="swimlane;fontStyle=2;align=center;verticalAlign=top;childLayout=stackLayout;horizontal=1;startSize=26;horizontalStack=0;resizeParent=1;resizeLast=0;collapsible=1;marginBottom=0;rounded=0;shadow=0;strokeWidth=1;" vertex="1" parent="WIyWlLk6GJQsqaUBKTNV-1">
          <mxGeometry x="270" y="560" width="170" height="90" as="geometry">
            <mxRectangle x="230" y="140" width="160" height="26" as="alternateBounds" />
          </mxGeometry>
        </mxCell>
        <mxCell id="mVQUmrM8wRDj-4UBV71F-44" value="&lt;div&gt;+entrenar_deportistas()&lt;br&gt;&lt;/div&gt;&lt;div&gt;&lt;br&gt;&lt;/div&gt;&lt;div&gt;+utilizar_habilidad_especial()&lt;/div&gt;&lt;div&gt;&lt;br&gt;&lt;/div&gt;" style="text;whiteSpace=wrap;html=1;" vertex="1" parent="mVQUmrM8wRDj-4UBV71F-43">
          <mxGeometry y="26" width="170" height="64" as="geometry" />
        </mxCell>
        <mxCell id="mVQUmrM8wRDj-4UBV71F-45" value="DCCrotona" style="swimlane;fontStyle=2;align=center;verticalAlign=top;childLayout=stackLayout;horizontal=1;startSize=26;horizontalStack=0;resizeParent=1;resizeLast=0;collapsible=1;marginBottom=0;rounded=0;shadow=0;strokeWidth=1;" vertex="1" parent="WIyWlLk6GJQsqaUBKTNV-1">
          <mxGeometry x="470" y="560" width="170" height="90" as="geometry">
            <mxRectangle x="230" y="140" width="160" height="26" as="alternateBounds" />
          </mxGeometry>
        </mxCell>
        <mxCell id="mVQUmrM8wRDj-4UBV71F-46" value="&lt;div&gt;+entrenar_deportistas()&lt;/div&gt;&lt;div&gt;&lt;br&gt;&lt;/div&gt;&lt;div&gt;&lt;div&gt;+utilizar_habilidad_especial()&lt;/div&gt;&lt;/div&gt;" style="text;whiteSpace=wrap;html=1;" vertex="1" parent="mVQUmrM8wRDj-4UBV71F-45">
          <mxGeometry y="26" width="170" height="64" as="geometry" />
        </mxCell>
      </root>
    </mxGraphModel>
  </diagram>
</mxfile>
